<svg width="226" height="61" fill="none" xmlns="http://www.w3.org/2000/svg" class="footer-logotype">
    <path
        d="M121.36 11.24c-1.68 0-3.2.27-4.57.82a7.27 7.27 0 0 0-3.2 2.3 5.54 5.54 0 0 0-1.13 3.45c0 2.63 1.54 4.67 4.51 6.13.9.45 2.07.91 3.49 1.39 1.4.47 2.34.91 2.86 1.33.5.38.75.92.75 1.64 0 .62-.23 1.08-.68 1.41-.45.34-1.1.52-1.95.52-1.37 0-2.3-.28-2.86-.78-.54-.5-.84-1.3-.84-2.46v-.27h-5.96v.27c0 1.52.38 2.88 1.15 4.07a7.84 7.84 0 0 0 3.45 2.78c1.52.67 3.2 1 5.06 1 2.61 0 4.7-.57 6.25-1.74a5.75 5.75 0 0 0 2.33-4.84c0-2.56-1.28-4.57-3.78-6.01a19.91 19.91 0 0 0-3.87-1.63c-1.55-.5-2.6-.97-3.18-1.4-.57-.44-.81-.9-.81-1.36 0-.57.23-1.03.72-1.4.5-.4 1.2-.6 2.14-.6.9 0 1.59.24 2.08.69.5.44.76 1.07.76 1.92v.27h5.94v-.27c0-1.41-.37-2.68-1.11-3.78a7.11 7.11 0 0 0-3.1-2.57c-1.32-.59-2.8-.88-4.45-.88ZM195.98 11.24c-1.68 0-3.2.27-4.57.82a7.28 7.28 0 0 0-3.2 2.3 5.54 5.54 0 0 0-1.13 3.45c0 2.63 1.54 4.67 4.51 6.13.91.45 2.07.91 3.49 1.39 1.4.47 2.34.91 2.86 1.33.5.38.75.92.75 1.64 0 .62-.23 1.08-.68 1.41-.45.34-1.1.52-1.95.52-1.37 0-2.3-.28-2.86-.78-.54-.5-.84-1.3-.84-2.46v-.27h-5.96v.27c0 1.52.38 2.88 1.15 4.07a7.85 7.85 0 0 0 3.45 2.78c1.52.67 3.2 1 5.06 1 2.61 0 4.7-.57 6.25-1.74a5.75 5.75 0 0 0 2.33-4.84c0-2.56-1.28-4.57-3.78-6.01a19.9 19.9 0 0 0-3.87-1.63c-1.55-.5-2.6-.97-3.18-1.4-.57-.44-.81-.9-.81-1.36 0-.57.23-1.03.72-1.4.5-.4 1.2-.6 2.14-.6.9 0 1.59.24 2.08.69.5.44.76 1.07.76 1.92v.27h5.94v-.27c0-1.41-.37-2.68-1.11-3.78l-.23.15.23-.15M203.53 14.69a7.11 7.11 0 0 0-3.1-2.57c-1.32-.59-2.8-.88-4.45-.88M203.53 14.69Z"
        fill="#0B2731"></path>
    <path fill-rule="evenodd" clip-rule="evenodd"
        d="M80 11.55h-9.1v18.41a4.57 4.57 0 0 0 4.56 4.57h1.38v-7.92h2.5l3.96 7.92h6.23v-.56l-4.6-8.87a6.8 6.8 0 0 0 2.83-2.48c.67-1.08 1-2.42 1-4.02 0-2.23-.78-3.98-2.35-5.22-1.57-1.24-3.72-1.83-6.42-1.83Zm-3.16 10.34v-5.63H80c.97 0 1.66.26 2.12.75.47.48.72 1.16.72 2.08 0 .92-.25 1.6-.72 2.08-.44.47-1.13.72-2.12.72h-3.15Z"
        fill="#0B2731"></path>
    <path
        d="M97.4 11.55H91.4v15.07c.03 2.53.86 4.55 2.5 6.02 1.63 1.48 3.86 2.2 6.64 2.2 1.84 0 3.45-.32 4.81-.98a7.17 7.17 0 0 0 3.17-2.88 8.75 8.75 0 0 0 1.1-4.47V11.55h-5.94v14.93c0 1.36-.29 2.28-.8 2.82-.5.55-1.27.84-2.34.84-1.06 0-1.82-.3-2.33-.84-.5-.54-.8-1.39-.83-2.58V11.55ZM150.41 11.55h-19.3v4.71h6.62v13.7a4.57 4.57 0 0 0 4.56 4.57h1.39V16.26h6.73v-4.71ZM167.73 11.55h-15.56v18.41a4.57 4.57 0 0 0 4.57 4.57h1.38V25.6h8.73v-4.7h-8.73v-4.63h9.6v-4.71ZM185.47 11.55h-16.03v18.41a4.57 4.57 0 0 0 4.57 4.57h11.43v-4.7H175.4v-4.81h8.51v-4.56h-8.51v-4.2h10.08v-4.71ZM225.03 11.55h-19.3v4.71h6.62v13.7a4.57 4.57 0 0 0 4.56 4.57h1.39V16.26h6.73v-4.71ZM78.5 46.45c.18 0 .32.06.43.18a.6.6 0 0 1 .19.43v2.9a.6.6 0 0 1-.31.55 5.16 5.16 0 0 1-2.76.81 4.7 4.7 0 0 1-4.07-2.3 4.6 4.6 0 0 1-.62-2.34 4.54 4.54 0 0 1 2.31-4.03 4.7 4.7 0 0 1 2.38-.62c.43 0 .84.05 1.23.15.4.09.77.23 1.09.42.1.06.18.13.23.22.05.09.08.18.08.28 0 .18-.06.33-.18.46a.54.54 0 0 1-.42.18.61.61 0 0 1-.33-.1 4.03 4.03 0 0 0-1.7-.38 3.32 3.32 0 0 0-3.36 3.42c0 .63.15 1.2.44 1.73a3.32 3.32 0 0 0 2.92 1.69 4.33 4.33 0 0 0 1.75-.38v-2.05h-1.56a.62.62 0 0 1-.44-.17.6.6 0 0 1-.18-.44c0-.18.06-.32.18-.43a.6.6 0 0 1 .44-.19h2.27ZM85.83 50a.6.6 0 0 1 .62.6c0 .17-.06.31-.18.42a.6.6 0 0 1-.44.17h-4.36a.61.61 0 0 1-.45-.18.62.62 0 0 1-.17-.44v-7.79a.6.6 0 0 1 .18-.44.63.63 0 0 1 .46-.18.6.6 0 0 1 .44.18c.13.12.2.27.2.44V50h3.7ZM96.02 46.68c0 .87-.2 1.65-.57 2.36a4.22 4.22 0 0 1-3.8 2.28 4.22 4.22 0 0 1-3.8-2.28 5 5 0 0 1-.55-2.36 5 5 0 0 1 .55-2.36 4.28 4.28 0 0 1 6.05-1.67c.66.4 1.18.96 1.55 1.67.38.7.57 1.49.57 2.36Zm-1.33 0c0-.65-.13-1.23-.39-1.74a2.95 2.95 0 0 0-4.22-1.24c-.45.29-.8.7-1.07 1.22-.25.52-.38 1.1-.38 1.76 0 .64.13 1.23.38 1.75.26.52.62.93 1.07 1.23.47.29 1 .44 1.58.44.58 0 1.1-.15 1.56-.44.46-.3.82-.71 1.08-1.23.26-.52.39-1.1.39-1.75ZM102.81 46.26c.47.17.86.44 1.16.82.31.37.47.85.47 1.45 0 .96-.28 1.64-.84 2.06-.55.4-1.23.6-2.03.6h-3.31a.6.6 0 0 1-.44-.18.6.6 0 0 1-.18-.44v-7.79a.6.6 0 0 1 .18-.44.6.6 0 0 1 .44-.18h3.31c.79 0 1.38.2 1.78.58.42.39.62.95.62 1.68a1.92 1.92 0 0 1-1.16 1.84Zm-.17-1.65c0-.4-.1-.7-.33-.91-.22-.22-.52-.32-.92-.32h-2.44v2.51h2.47c.35 0 .64-.12.88-.34.23-.22.34-.53.34-.94Zm-1.08 5.4c.47 0 .85-.13 1.13-.37.29-.25.43-.62.43-1.1 0-.96-.54-1.44-1.63-1.44h-2.54V50h2.61ZM113 50.4c.03.07.04.15.04.24 0 .17-.06.31-.18.42a.55.55 0 0 1-.4.17.6.6 0 0 1-.33-.1.86.86 0 0 1-.23-.31l-.8-1.9h-3.99l-.79 1.91a.55.55 0 0 1-.22.3c-.09.07-.2.1-.32.1-.18 0-.32-.05-.41-.14a.52.52 0 0 1-.14-.39l.02-.2 3.3-7.98a.7.7 0 0 1 .24-.3c.1-.08.23-.11.37-.1.13 0 .25.04.35.1.1.08.18.17.22.3L113 50.4Zm-2.4-2.65-1.5-3.61-1.5 3.6h3ZM119.32 50a.6.6 0 0 1 .62.6c0 .17-.06.31-.18.42a.6.6 0 0 1-.44.17h-4.36a.61.61 0 0 1-.45-.18.62.62 0 0 1-.17-.44v-7.79a.6.6 0 0 1 .18-.44.63.63 0 0 1 .47-.18.6.6 0 0 1 .44.18c.12.12.19.27.19.44V50h3.7ZM129.98 50.06c.16 0 .3.05.4.16.12.12.18.25.18.42 0 .16-.06.3-.17.4a.58.58 0 0 1-.41.15h-4.58a.6.6 0 0 1-.43-.15.6.6 0 0 1-.17-.44c0-.16.06-.3.19-.44l2.87-3.12c.8-.85 1.2-1.6 1.2-2.26 0-.46-.15-.85-.46-1.15-.3-.3-.7-.46-1.16-.46-.32 0-.63.09-.92.27a2 2 0 0 0-.71.77c-.14.18-.3.27-.49.27a.62.62 0 0 1-.41-.16.5.5 0 0 1-.2-.39c0-.1.03-.2.1-.3.06-.1.16-.22.28-.36a3.09 3.09 0 0 1 2.41-1.24c.58 0 1.07.12 1.5.35.42.23.74.55.96.96.24.4.35.86.35 1.39 0 .99-.53 2.05-1.6 3.2l-1.95 2.13h3.22ZM134.93 51.32c-.7 0-1.31-.2-1.8-.6-.5-.39-.88-.93-1.14-1.63-.25-.7-.38-1.5-.38-2.41 0-.91.13-1.72.38-2.41.25-.7.63-1.25 1.13-1.64.5-.4 1.1-.6 1.8-.6.71 0 1.32.2 1.81.6.5.4.88.94 1.13 1.64.25.7.38 1.5.38 2.4 0 .92-.13 1.72-.39 2.42-.24.7-.62 1.24-1.12 1.64-.5.4-1.1.6-1.8.6Zm0-1.24c.63 0 1.11-.3 1.45-.89.36-.6.53-1.43.53-2.51 0-1.09-.17-1.92-.53-2.52-.34-.6-.82-.89-1.45-.89s-1.12.3-1.47.9c-.35.59-.52 1.42-.52 2.5 0 1.1.17 1.93.52 2.52.35.6.84.9 1.47.9ZM144.88 50.06a.56.56 0 0 1 .58.58c0 .16-.06.3-.17.4a.59.59 0 0 1-.41.15h-4.58a.6.6 0 0 1-.43-.15.6.6 0 0 1-.16-.44c0-.16.06-.3.18-.44l2.87-3.12c.8-.85 1.2-1.6 1.2-2.26 0-.46-.15-.85-.46-1.15-.3-.3-.69-.46-1.16-.46-.32 0-.63.09-.92.27a2 2 0 0 0-.7.77c-.15.18-.3.27-.5.27a.62.62 0 0 1-.41-.16.5.5 0 0 1-.2-.39c0-.1.04-.2.1-.3.06-.1.16-.22.28-.36a3.08 3.08 0 0 1 2.41-1.24c.58 0 1.08.12 1.5.35.42.23.74.55.97.96.23.4.34.86.34 1.39 0 .99-.53 2.05-1.6 3.2l-1.94 2.13h3.2ZM148.8 42.16c.17.01.3.08.41.2.11.1.17.25.17.42v7.8c0 .16-.07.31-.2.43a.67.67 0 0 1-.47.18.63.63 0 0 1-.47-.18.6.6 0 0 1-.18-.44v-6.7l-1.13.68c-.1.06-.2.09-.33.09a.58.58 0 0 1-.43-.2.65.65 0 0 1-.18-.43c0-.1.02-.2.08-.3.07-.1.14-.17.24-.23l2.04-1.23a1 1 0 0 1 .45-.09ZM20.2 47.43l1.07-1.07c.56-.56.43-1.46-.19-1.88a16.94 16.94 0 0 1-4.56-4.56 1.23 1.23 0 0 0-1.88-.19l-1.07 1.07a19.92 19.92 0 0 0 6.63 6.63ZM9.83 44.55 7.6 46.77a2.8 2.8 0 0 0 0 3.96l2.67 2.67a2.8 2.8 0 0 0 3.96 0l2.22-2.23a25.13 25.13 0 0 1-6.62-6.62Z"
        fill="#0B2731"></path>
    <path fill-rule="evenodd" clip-rule="evenodd"
        d="m13.57 20.2 1.07 1.07c.56.56 1.46.43 1.88-.19a16.94 16.94 0 0 1 4.56-4.56c.62-.42.75-1.32.19-1.88l-1.07-1.07a19.92 19.92 0 0 0-6.63 6.63Zm2.88-10.37L14.23 7.6a2.8 2.8 0 0 0-3.96 0L7.6 10.27a2.8 2.8 0 0 0 0 3.96l2.22 2.23a25.13 25.13 0 0 1 6.63-6.63Z"
        fill="#0B2731"></path>
    <!-- <path
        d="m40.8 13.57-1.07 1.07c-.56.56-.43 1.46.19 1.88a17.03 17.03 0 0 1 4.56 4.56c.42.62 1.32.75 1.88.2l1.07-1.08a19.92 19.92 0 0 0-6.63-6.63ZM51.18 16.46l2.22-2.23a2.8 2.8 0 0 0 0-3.96L50.73 7.6a2.8 2.8 0 0 0-3.96 0l-2.23 2.22a25.13 25.13 0 0 1 6.64 6.64ZM27.52 6.16h5.96v4.92h-5.96zM2.8 25.81a2.8 2.8 0 0 0-2.8 2.8v3.78a2.8 2.8 0 0 0 2.8 2.8h11.87c.55 0 1.12-.21 1.54-.64l2.51-2.5c.85-.86.85-2.24 0-3.1l-2.51-2.5a2.18 2.18 0 0 0-1.54-.64H2.8ZM46.36 39.73l1.07 1.07a19.92 19.92 0 0 1-6.63 6.63l-1.07-1.07a1.23 1.23 0 0 1 .19-1.88 16.94 16.94 0 0 0 4.56-4.56 1.23 1.23 0 0 1 1.88-.19ZM46.77 53.4l-2.23-2.22a25.13 25.13 0 0 0 6.63-6.63l2.23 2.22a2.8 2.8 0 0 1 0 3.96l-2.67 2.67a2.8 2.8 0 0 1-3.96 0ZM32.04 42.28a2.18 2.18 0 0 0-3.08 0l-2.51 2.51c-.43.42-.64.99-.64 1.54V58.2a2.8 2.8 0 0 0 2.8 2.8h3.78a2.8 2.8 0 0 0 2.8-2.8V46.33c0-.55-.21-1.12-.64-1.54l-2.5-2.51ZM46.33 25.81c-.56 0-1.12.21-1.54.64l-2.51 2.5a2.18 2.18 0 0 0 0 3.1l2.51 2.5c.42.43.98.64 1.54.64H58.2a2.8 2.8 0 0 0 2.8-2.8V28.6a2.8 2.8 0 0 0-2.8-2.8H46.33Z"
        fill="#0B2731"></path> -->
    <path
        d="M28.61 0a2.8 2.8 0 0 0-2.8 2.8v11.87c0 .56.21 1.12.64 1.54l2.5 2.51c.86.85 2.24.85 3.1 0l2.5-2.51c.43-.42.64-.98.64-1.54V2.8a2.8 2.8 0 0 0-2.8-2.8H28.6Z"
        fill="#0B2731"></path>
    <path fill-rule="evenodd" clip-rule="evenodd"
        d="M23.93 8.34a23.16 23.16 0 0 0-15.6 15.59h1.49A21.75 21.75 0 0 1 23.93 9.82V8.34Zm13.14 1.48a21.75 21.75 0 0 1 14.11 14.11h1.48a23.16 23.16 0 0 0-15.59-15.6v1.49Zm15.6 27.25h-1.49a21.75 21.75 0 0 1-14.1 14.11v1.48a23.16 23.16 0 0 0 15.58-15.59Zm-44.33 0a23.16 23.16 0 0 0 15.59 15.6v-1.49a21.75 21.75 0 0 1-14.11-14.1H8.34Z"
        fill="#0B2731"></path>
</svg>